<?xml version="1.0" encoding="UTF-8" standalone="no"?>
<!-- Created with Inkscape (http://www.inkscape.org/) -->

<svg
   version="1.1"
   id="svg1"
   width="1024"
   height="1024"
   viewBox="0 0 1024 1024"
   sodipodi:docname="repair-icon.svg"
   inkscape:version="1.3.2 (091e20e, 2023-11-25, custom)"
   xmlns:inkscape="http://www.inkscape.org/namespaces/inkscape"
   xmlns:sodipodi="http://sodipodi.sourceforge.net/DTD/sodipodi-0.dtd"
   xmlns="http://www.w3.org/2000/svg"
   xmlns:svg="http://www.w3.org/2000/svg">
  <defs
     id="defs1" />
  <sodipodi:namedview
     id="namedview1"
     pagecolor="#505050"
     bordercolor="#eeeeee"
     borderopacity="1"
     inkscape:showpageshadow="0"
     inkscape:pageopacity="0"
     inkscape:pagecheckerboard="0"
     inkscape:deskcolor="#505050"
     showgrid="false"
     inkscape:zoom="0.84082031"
     inkscape:cx="482.26713"
     inkscape:cy="513.18931"
     inkscape:window-width="1920"
     inkscape:window-height="1057"
     inkscape:window-x="-8"
     inkscape:window-y="-8"
     inkscape:window-maximized="1"
     inkscape:current-layer="g1" />
  <g
     inkscape:groupmode="layer"
     inkscape:label="Image"
     id="g1">
    <g
       id="g7">
      <path
         id="path1"
         style="display:inline;fill:#ffffff;fill-opacity:1"
         d="M 319.30664 174.67188 C 298.00193 174.11272 277.29948 178.77796 259.86914 189.01172 C 257.44494 192.42437 253.91701 197.52696 258.08203 203.66992 L 342.27539 287.19141 C 343.0607 289.45911 344.28251 291.64022 342.38086 294.44531 L 287.82227 350.79102 C 283.98571 354.41506 280.95552 352.39844 277.94141 350.26562 L 194.36914 268.90039 C 187.71486 263.69529 179.91988 266.07223 174.92188 270.79297 C 145.48694 333.64098 180.78989 499.91736 363.93164 456.22852 L 426.79297 519.93164 L 402.82617 542.42773 C 380.60846 530.01347 368.28814 536.7251 357.62305 546.63281 L 193.42383 709.99023 C 170.57607 732.60469 169.0835 774.39703 189.42969 801.02539 L 212.97656 827.30664 C 239.9153 842.94409 266.20963 860.21523 313.97852 823.00586 L 473.34766 665.125 C 482.15215 656.28932 487.05048 643.84795 480.48242 620.82227 L 504.56641 596.73828 L 727.86133 828.6543 C 795.21961 872.54435 858.67452 785.82881 822.11328 739.45703 L 577.11523 496.53906 L 717.15625 353.52344 C 736.22174 337.95639 749.54184 334.32825 771.86523 326.4668 L 835.49414 238.9043 L 779.5957 185.83008 L 694.26172 246.7832 C 684.47281 265.84661 683.78769 287.48372 669.73242 305.05859 L 528.35352 447.18164 L 450.00781 368.83594 C 447.70632 367.10683 448.72476 366.01656 448.81836 364.74805 C 479.14944 245.28953 395.39487 176.66882 319.30664 174.67188 z M 313.85156 197.64648 C 365.87827 197.02797 453.55132 242.14513 423.8418 362.74023 C 422.57652 371.39615 424.15005 378.63639 432.16797 386.30469 L 800.70703 754.32227 C 826.48432 778.90447 777.19299 846.16717 737.22656 802.63867 L 371.80859 430.53125 L 363.33594 430.38281 C 240.81473 477.86397 175.05084 363.17008 191.92578 303.27539 C 192.36424 302.66112 192.87768 302.36838 193.70898 303.42383 L 263.13672 370.32227 C 281.52263 379.67202 291.56637 377.23895 301.3418 372.10742 L 359.4707 309.96484 C 371.27383 287.69749 364.53069 274.21531 353.9707 262.54102 L 292.86914 202.99023 C 292.35819 202.05808 292.39684 201.20905 294.18359 200.625 C 299.71489 198.75656 306.41918 197.73484 313.85156 197.64648 z M 776.91992 219.42773 L 800.4082 242.62109 L 757.34961 302.81836 C 755.94113 305.14221 753.92974 305.6579 751.94336 306.24805 C 735.62059 311.26034 709.91777 323.95098 697.25391 340.42578 L 558.53125 479.44336 L 545.30078 466.0625 L 685.64062 325.27734 C 709.99481 296.59836 707.81461 280.75313 714.48047 262.83789 C 714.80925 262.07967 715.35945 261.37605 716.26562 260.75781 L 776.91992 219.42773 z M 444.95312 537.86719 L 486.13281 579.49414 L 464.57617 600.75195 L 422.80078 560.16797 L 444.95312 537.86719 z M 382.53711 562.49609 C 385.07355 562.48181 387.92063 563.18669 391.26172 565.0293 L 449.71094 622.74023 C 458.09034 628.90912 460.94221 643.90231 452.86328 649.02148 L 300.01758 802.39258 C 279.38022 819.71705 258.06785 825.95722 235.47266 811.11719 C 226.12644 803.52692 217.35806 795.4305 210.24219 785.88867 C 194.99987 769.64111 195.85344 736.99725 217.8125 721.13477 L 371.60547 566.60547 C 374.94768 564.53894 378.30971 562.51989 382.53711 562.49609 z " />
      <path
         style="fill:#ffffff;fill-opacity:1"
         d="m 390.09524,609.67247 c 11.24926,-10.51818 25.56125,2.30596 18.73171,16.35308 L 263.58188,773.35192 c -20.35792,12.71393 -27.5294,-9.18739 -19.02903,-17.69106 z"
         id="path5"
         sodipodi:nodetypes="ccccc" />
      <ellipse
         style="fill:#ffffff;fill-opacity:1;stroke-width:1.39623"
         id="path6"
         cx="754.87799"
         cy="761.39545"
         rx="19.447489"
         ry="19.447491" />
    </g>
  </g>
</svg>
